<svg aria-hidden="true" style="position:absolute;width:0;height:0;overflow:hidden" xmlns="http://www.w3.org/2000/svg">
  <defs>
    <symbol id="icon-logo" viewBox="0 0 35 32">
      <path d="M15.392 11.53h-1.098v-1.113h1.098v1.113z"/>
      <path d="M14.294 11.53h-1.098v-1.113h1.098v1.113zM8.804 11.53H7.706v-1.113h1.098v1.113z"/>
      <path d="M7.707 11.53H6.609v-1.113h1.098v1.113zM6.609 11.53H5.511v-1.113h1.098v1.113zM28.566 10.417h-1.098V9.304h1.098v1.113zM27.468 10.417H26.37V9.304h1.098v1.113zM19.783 10.417h-1.098V9.304h1.098v1.113zM18.685 10.417h-1.098V9.304h1.098v1.113zM16.49 10.417h-1.098V9.304h1.098v1.113z"/>
      <path d="M15.392 10.417h-1.098V9.304h1.098v1.113zM7.707 10.417H6.609V9.304h1.098v1.113zM6.609 10.417H5.511V9.304h1.098v1.113zM28.566 9.304h-1.098V8.191h1.098v1.113zM18.685 9.304h-1.098V8.191h1.098v1.113zM16.49 9.304h-1.098V8.191h1.098v1.113zM6.609 9.304H5.511V8.191h1.098v1.113zM34.055 8.191h-1.098V7.078h1.098v1.113zM1.12 8.191H.022V7.078H1.12v1.113zM34.055 7.078h-1.098V5.965h1.098v1.113zM32.957 7.078h-1.098V5.965h1.098v1.113zM23.076 7.078h-1.098V5.965h1.098v1.113z"/>
      <path d="M21.979 7.078h-1.098V5.965h1.098v1.113zM20.881 7.078h-1.098V5.965h1.098v1.113zM14.294 7.078h-1.098V5.965h1.098v1.113zM13.196 7.078h-1.098V5.965h1.098v1.113z"/>
      <path d="M12.098 7.078H11V5.965h1.098v1.113zM2.217 7.078H1.119V5.965h1.098v1.113z"/>
      <path d="M1.12 7.078H.022V5.965H1.12v1.113zM34.055 5.965h-1.098V4.852h1.098v1.113zM32.957 5.965h-1.098V4.852h1.098v1.113zM31.859 5.965h-1.098V4.852h1.098v1.113zM24.174 5.965h-1.098V4.852h1.098v1.113zM23.076 5.965h-1.098V4.852h1.098v1.113z"/>
      <path d="M21.979 5.965h-1.098V4.852h1.098v1.113zM18.685 5.965h-1.098V4.852h1.098v1.113zM16.49 5.965h-1.098V4.852h1.098v1.113zM13.196 5.965h-1.098V4.852h1.098v1.113z"/>
      <path d="M12.098 5.965H11V4.852h1.098v1.113zM11 5.965H9.902V4.852H11v1.113zM3.315 5.965H2.217V4.852h1.098v1.113zM2.217 5.965H1.119V4.852h1.098v1.113z"/>
      <path d="M1.12 5.965H.022V4.852H1.12v1.113zM32.957 4.852h-1.098V3.739h1.098v1.113zM31.859 4.852h-1.098V3.739h1.098v1.113z"/>
      <path d="M30.762 4.852h-1.098V3.739h1.098v1.113zM25.272 4.852h-1.098V3.739h1.098v1.113zM24.174 4.852h-1.098V3.739h1.098v1.113zM23.076 4.852h-1.098V3.739h1.098v1.113zM19.783 4.852h-1.098V3.739h1.098v1.113zM18.685 4.852h-1.098V3.739h1.098v1.113zM16.49 4.852h-1.098V3.739h1.098v1.113z"/>
      <path d="M15.392 4.852h-1.098V3.739h1.098v1.113zM12.098 4.852H11V3.739h1.098v1.113zM11 4.852H9.902V3.739H11v1.113z"/>
      <path d="M9.903 4.852H8.805V3.739h1.098v1.113zM4.413 4.852H3.315V3.739h1.098v1.113z"/>
      <path d="M3.315 4.852H2.217V3.739h1.098v1.113zM2.217 4.852H1.119V3.739h1.098v1.113zM31.859 3.739h-1.098V2.626h1.098v1.113z"/>
      <path d="M30.762 3.739h-1.098V2.626h1.098v1.113zM29.664 3.739h-1.098V2.626h1.098v1.113zM20.881 3.739h-1.098V2.626h1.098v1.113zM19.783 3.739h-1.098V2.626h1.098v1.113zM18.685 3.739h-1.098V2.626h1.098v1.113zM16.49 3.739h-1.098V2.626h1.098v1.113z"/>
      <path d="M15.392 3.739h-1.098V2.626h1.098v1.113z"/>
      <path d="M14.294 3.739h-1.098V2.626h1.098v1.113zM5.511 3.739H4.413V2.626h1.098v1.113zM4.413 3.739H3.315V2.626h1.098v1.113z"/>
      <path d="M3.315 3.739H2.217V2.626h1.098v1.113zM35.153 2.626h-1.098V1.513h1.098v1.113zM30.762 2.626h-1.098V1.513h1.098v1.113zM29.664 2.626h-1.098V1.513h1.098v1.113zM28.566 2.626h-1.098V1.513h1.098v1.113zM20.881 2.626h-1.098V1.513h1.098v1.113zM19.783 2.626h-1.098V1.513h1.098v1.113zM15.392 2.626h-1.098V1.513h1.098v1.113z"/>
      <path d="M14.294 2.626h-1.098V1.513h1.098v1.113zM6.609 2.626H5.511V1.513h1.098v1.113zM5.511 2.626H4.413V1.513h1.098v1.113zM4.413 2.626H3.315V1.513h1.098v1.113zM35.153 1.513h-1.098V.4h1.098v1.113zM34.055 1.513h-1.098V.4h1.098v1.113zM29.664 1.513h-1.098V.4h1.098v1.113zM28.566 1.513h-1.098V.4h1.098v1.113zM27.468 1.513H26.37V.4h1.098v1.113zM20.881 1.513h-1.098V.4h1.098v1.113zM14.294 1.513h-1.098V.4h1.098v1.113zM7.707 1.513H6.609V.4h1.098v1.113zM6.609 1.513H5.511V.4h1.098v1.113zM5.511 1.513H4.413V.4h1.098v1.113zM1.12 1.513H.022V.4H1.12v1.113z"/>
    </symbol>
    <symbol id="icon-face" viewBox="0 0 32 32">
      <path d="M19.52 4.64h.96v3.6h-1.2c-.48 0-.96 0-1.2.24s-.24.48-.24 1.04v1.28h2.64v3.04h-2.64v13.2h-4.08V13.76H11.6v-3.04h2.16V9.68c0-1.76.24-3.04.72-3.6.72-1.04 2.16-1.52 4.32-1.52.24.08.48.08.72.08z"/>
    </symbol>
    <symbol id="icon-youtube" viewBox="0 0 32 32">
      <path d="M24.24 6c-1.36-.08-4.16-.16-8.4-.16h-.56c-4.08 0-6.8.08-8.16.24-1.84.16-3.12.64-3.84 1.28-.64.56-1.12 1.6-1.28 2.96-.08.88-.16 2.72-.16 5.52v.4c0 2.64.08 4.48.24 5.36.24 1.28.64 2.24 1.44 2.8.8.64 2.16 1.04 4.08 1.2 1.36.08 4.16.16 8.4.16h.56c4.08 0 6.8-.08 8.16-.24 1.84-.16 3.12-.64 3.84-1.28.64-.56 1.12-1.6 1.28-2.96.08-.88.16-2.72.16-5.52v-.4c0-2.64-.08-4.48-.24-5.36-.24-1.28-.64-2.24-1.44-2.8-.8-.64-2.16-1.04-4.08-1.2zm-3.12 9.84-8.8 5.28V10.56l8.8 5.28z"/>
    </symbol>
    <symbol id="icon-instagram" viewBox="0 0 32 32">
      <path d="M28.717 10.756a9.264 9.264 0 0 0-.596-3.145 6.547 6.547 0 0 0-3.743-3.737 9.42 9.42 0 0 0-3.108-.596c-1.368-.061-1.801-.078-5.273-.078s-3.917 0-5.274.078a9.418 9.418 0 0 0-3.106.596 6.541 6.541 0 0 0-3.743 3.737 9.288 9.288 0 0 0-.596 3.101c-.061 1.367-.08 1.8-.08 5.265s0 3.909.08 5.265a9.335 9.335 0 0 0 .596 3.104 6.548 6.548 0 0 0 3.744 3.735 9.37 9.37 0 0 0 3.106.639c1.369.061 1.803.08 5.274.08s3.916 0 5.274-.08a9.357 9.357 0 0 0 3.108-.595 6.555 6.555 0 0 0 3.743-3.737 9.35 9.35 0 0 0 .596-3.104c.061-1.365.08-1.798.08-5.265-.003-3.466-.003-3.906-.082-5.264zM15.99 22.531c-3.631 0-6.572-2.936-6.572-6.561s2.941-6.561 6.572-6.561c3.628 0 6.572 2.936 6.572 6.561s-2.944 6.561-6.572 6.561zm6.833-11.835a1.53 1.53 0 1 1 0-3.06 1.53 1.53 0 1 1 0 3.06z"/>
      <path d="M15.992 19.976a4.004 4.004 0 1 0 0-8.009 4.004 4.004 0 0 0 0 8.009z"/>
    </symbol>
    <symbol id="icon-Nav" viewBox="0 0 47 32">
      <path stroke-linecap="round" stroke-width="3.2" d="M8.742 5.188h36.591M8.742 24.582h36.591M19.965 14.885h25.368"/>
    </symbol>
    <symbol id="icon-close" viewBox="0 0 32 32">
      <path stroke-linejoin="round" stroke-linecap="round" stroke-width="2.182" d="M24 8 8 24M8 8l16 16"/>
    </symbol>
  </defs>
</svg>
