<svg aria-hidden="true" style="position: absolute; width: 0; height: 0; overflow: hidden;" version="1.1" xmlns="http://www.w3.org/2000/svg" xmlns:xlink="http://www.w3.org/1999/xlink">
<defs>
<symbol id="icon-Star-10" viewBox="0 0 32 32">
<path d="M15.434 0.333c0.251-0.437 0.881-0.437 1.133 0l1.84 3.203c0.19 0.33 0.621 0.429 0.935 0.214l3.081-2.107c0.418-0.286 0.987-0.008 1.020 0.496l0.239 3.642c0.025 0.383 0.374 0.662 0.754 0.602l3.69-0.584c0.504-0.080 0.9 0.423 0.706 0.894l-1.386 3.36c-0.148 0.359 0.048 0.767 0.421 0.876l3.555 1.036c0.493 0.144 0.635 0.773 0.252 1.115l-2.731 2.433c-0.291 0.26-0.291 0.715 0 0.975l2.731 2.433c0.383 0.341 0.241 0.971-0.252 1.115l-3.555 1.036c-0.373 0.109-0.569 0.517-0.421 0.876l1.386 3.36c0.194 0.471-0.202 0.974-0.706 0.894l-3.69-0.584c-0.38-0.060-0.729 0.219-0.754 0.602l-0.239 3.642c-0.033 0.505-0.603 0.782-1.020 0.496l-3.081-2.107c-0.314-0.215-0.745-0.116-0.935 0.214l-1.84 3.203c-0.251 0.437-0.881 0.437-1.133 0l-1.84-3.203c-0.19-0.33-0.621-0.429-0.935-0.214l-3.081 2.107c-0.418 0.286-0.987 0.009-1.020-0.496l-0.239-3.642c-0.025-0.383-0.374-0.662-0.754-0.602l-3.69 0.584c-0.504 0.080-0.9-0.423-0.706-0.894l1.386-3.36c0.148-0.359-0.048-0.767-0.421-0.876l-3.555-1.036c-0.493-0.144-0.635-0.773-0.252-1.115l2.731-2.433c0.291-0.26 0.291-0.715 0-0.975l-2.731-2.433c-0.383-0.341-0.241-0.971 0.252-1.115l3.555-1.036c0.373-0.109 0.569-0.517 0.421-0.876l-1.386-3.36c-0.194-0.471 0.202-0.974 0.706-0.894l3.69 0.584c0.38 0.060 0.729-0.219 0.754-0.602l0.239-3.642c0.033-0.505 0.603-0.782 1.020-0.496l3.081 2.107c0.314 0.215 0.745 0.116 0.935-0.214l1.84-3.203z"></path>
</symbol>
<symbol id="icon-face" viewBox="0 0 32 32">
      <path d="M19.52 4.64h.96v3.6h-1.2c-.48 0-.96 0-1.2.24s-.24.48-.24 1.04v1.28h2.64v3.04h-2.64v13.2h-4.08V13.76H11.6v-3.04h2.16V9.68c0-1.76.24-3.04.72-3.6.72-1.04 2.16-1.52 4.32-1.52.24.08.48.08.72.08z"/>
    </symbol>
    <symbol id="icon-youtube" viewBox="0 0 32 32">
      <path d="M24.24 6c-1.36-.08-4.16-.16-8.4-.16h-.56c-4.08 0-6.8.08-8.16.24-1.84.16-3.12.64-3.84 1.28-.64.56-1.12 1.6-1.28 2.96-.08.88-.16 2.72-.16 5.52v.4c0 2.64.08 4.48.24 5.36.24 1.28.64 2.24 1.44 2.8.8.64 2.16 1.04 4.08 1.2 1.36.08 4.16.16 8.4.16h.56c4.08 0 6.8-.08 8.16-.24 1.84-.16 3.12-.64 3.84-1.28.64-.56 1.12-1.6 1.28-2.96.08-.88.16-2.72.16-5.52v-.4c0-2.64-.08-4.48-.24-5.36-.24-1.28-.64-2.24-1.44-2.8-.8-.64-2.16-1.04-4.08-1.2zm-3.12 9.84-8.8 5.28V10.56l8.8 5.28z"/>
    </symbol>
    <symbol id="icon-instagram" viewBox="0 0 32 32">
      <path d="M28.717 10.756a9.264 9.264 0 0 0-.596-3.145 6.547 6.547 0 0 0-3.743-3.737 9.42 9.42 0 0 0-3.108-.596c-1.368-.061-1.801-.078-5.273-.078s-3.917 0-5.274.078a9.418 9.418 0 0 0-3.106.596 6.541 6.541 0 0 0-3.743 3.737 9.288 9.288 0 0 0-.596 3.101c-.061 1.367-.08 1.8-.08 5.265s0 3.909.08 5.265a9.335 9.335 0 0 0 .596 3.104 6.548 6.548 0 0 0 3.744 3.735 9.37 9.37 0 0 0 3.106.639c1.369.061 1.803.08 5.274.08s3.916 0 5.274-.08a9.357 9.357 0 0 0 3.108-.595 6.555 6.555 0 0 0 3.743-3.737 9.35 9.35 0 0 0 .596-3.104c.061-1.365.08-1.798.08-5.265-.003-3.466-.003-3.906-.082-5.264zM15.99 22.531c-3.631 0-6.572-2.936-6.572-6.561s2.941-6.561 6.572-6.561c3.628 0 6.572 2.936 6.572 6.561s-2.944 6.561-6.572 6.561zm6.833-11.835a1.53 1.53 0 1 1 0-3.06 1.53 1.53 0 1 1 0 3.06z"/>
      <path d="M15.992 19.976a4.004 4.004 0 1 0 0-8.009 4.004 4.004 0 0 0 0 8.009z"/>
    </symbol>
    <symbol id="icon-Nav" viewBox="0 0 47 32">
      <path stroke-linecap="round" stroke-width="3.2" d="M8.742 5.188h36.591M8.742 24.582h36.591M19.965 14.885h25.368"/>
    </symbol>
    <symbol id="icon-close" viewBox="0 0 32 32">
      <path stroke-linejoin="round" stroke-linecap="round" stroke-width="2.182" d="M24 8 8 24M8 8l16 16"/>
    </symbol>
<symbol id="icon-untitled" viewBox="0 0 48 32">
<path fill="#ecd979" style="fill: var(--color1, #ecd979)" d="M41.648 18.935c-0.261-1.955-0.429-3.7-0.506-5.235-0.033-1.56 0.026-2.91 0.178-4.050l-37.94 21.905-1.795-3.109 37.94-21.905c-1.092-0.488-2.305-1.137-3.639-1.945-1.291-0.834-2.704-1.827-4.238-2.981l2.278-1.315c4.813 2.024 9.215 3.036 13.206 3.035l0.769 1.332c-2.025 3.406-3.35 7.724-3.975 12.954l-2.278 1.315z"></path>
</symbol>

<svg aria-hidden="true" style="position: absolute; width: 0; height: 0; overflow: hidden;" version="1.1" xmlns="http://www.w3.org/2000/svg" xmlns:xlink="http://www.w3.org/1999/xlink">
<defs>
<symbol id="icon-heart-icon" viewBox="0 0 32 32">
<path d="M20.093 8.607c-1.812 0-3.377 1.074-4.093 2.619-0.716-1.545-2.282-2.619-4.093-2.619-2.487 0-4.511 2.023-4.511 4.51 0 1.053 0.372 2.079 1.055 2.897 0.169 0.201 0.356 0.388 0.531 0.533l6.724 6.724c0.081 0.081 0.188 0.122 0.294 0.122s0.213-0.040 0.294-0.122l6.697-6.7c0.201-0.169 0.388-0.356 0.565-0.566 0.676-0.81 1.048-1.836 1.048-2.89-0.001-2.486-2.024-4.509-4.511-4.509zM22.911 15.48c-0.138 0.164-0.291 0.317-0.482 0.479l-6.429 6.429-6.456-6.454c-0.164-0.138-0.317-0.291-0.461-0.461-0.551-0.66-0.854-1.498-0.854-2.356 0-2.028 1.65-3.677 3.678-3.677s3.677 1.649 3.677 3.677c0 0.23 0.186 0.416 0.416 0.416s0.416-0.186 0.416-0.416c0-2.028 1.649-3.677 3.677-3.677s3.678 1.649 3.678 3.677c0.001 0.86-0.302 1.697-0.86 2.364z"></path>
</symbol>
</defs>
</svg>


</defs>
</svg>
