<svg aria-hidden="true" style="position: absolute; width: 0; height: 0; overflow: hidden;" version="1.1" xmlns="http://www.w3.org/2000/svg" xmlns:xlink="http://www.w3.org/1999/xlink">
<defs>
<symbol id="icon-vector" viewBox="0 0 48 32">
<path d="M40.165 18.935c-0.261-1.955-0.429-3.7-0.506-5.235-0.033-1.56 0.026-2.91 0.178-4.050l-37.94 21.905-1.795-3.109 37.94-21.905c-1.092-0.488-2.305-1.137-3.639-1.945-1.291-0.834-2.704-1.827-4.238-2.981l2.278-1.315c4.813 2.024 9.215 3.036 13.206 3.035l0.769 1.332c-2.025 3.406-3.35 7.724-3.975 12.954l-2.278 1.315z"></path>
</symbol>
<symbol id="icon-facebook" viewBox="0 0 32 32">
<path fill="#fcf9f9" style="fill: var(--color1, #fcf9f9)" opacity="0.8" d="M19.52 4.64c0.24 0 0.48 0 0.96 0v3.6c-0.24 0-0.72 0-1.2 0s-0.96 0-1.2 0.24c-0.24 0.24-0.24 0.48-0.24 1.040 0 0.48 0 0.8 0 1.28h2.64v3.040h-2.64v13.2h-4.080v-13.28h-2.16v-3.040h2.16v-1.040c0-1.76 0.24-3.040 0.72-3.6 0.72-1.040 2.16-1.52 4.32-1.52 0.24 0.080 0.48 0.080 0.72 0.080z"></path>
</symbol>
<symbol id="icon-Star-10" viewBox="0 0 32 32">
<path d="M15.434 0.333c0.251-0.437 0.881-0.437 1.133 0l1.84 3.203c0.19 0.33 0.621 0.429 0.935 0.214l3.081-2.107c0.418-0.286 0.987-0.008 1.020 0.496l0.239 3.642c0.025 0.383 0.374 0.662 0.754 0.602l3.69-0.584c0.504-0.080 0.9 0.423 0.706 0.894l-1.386 3.36c-0.148 0.359 0.048 0.767 0.421 0.876l3.555 1.036c0.493 0.144 0.635 0.773 0.252 1.115l-2.731 2.433c-0.291 0.26-0.291 0.715 0 0.975l2.731 2.433c0.383 0.341 0.241 0.971-0.252 1.115l-3.555 1.036c-0.373 0.109-0.569 0.517-0.421 0.876l1.386 3.36c0.194 0.471-0.202 0.974-0.706 0.894l-3.69-0.584c-0.38-0.060-0.729 0.219-0.754 0.602l-0.239 3.642c-0.033 0.505-0.603 0.782-1.020 0.496l-3.081-2.107c-0.314-0.215-0.745-0.116-0.935 0.214l-1.84 3.203c-0.251 0.437-0.881 0.437-1.133 0l-1.84-3.203c-0.19-0.33-0.621-0.429-0.935-0.214l-3.081 2.107c-0.418 0.286-0.987 0.009-1.020-0.496l-0.239-3.642c-0.025-0.383-0.374-0.662-0.754-0.602l-3.69 0.584c-0.504 0.080-0.9-0.423-0.706-0.894l1.386-3.36c0.148-0.359-0.048-0.767-0.421-0.876l-3.555-1.036c-0.493-0.144-0.635-0.773-0.252-1.115l2.731-2.433c0.291-0.26 0.291-0.715 0-0.975l-2.731-2.433c-0.383-0.341-0.241-0.971 0.252-1.115l3.555-1.036c0.373-0.109 0.569-0.517 0.421-0.876l-1.386-3.36c-0.194-0.471 0.202-0.974 0.706-0.894l3.69 0.584c0.38 0.060 0.729-0.219 0.754-0.602l0.239-3.642c0.033-0.505 0.603-0.782 1.020-0.496l3.081 2.107c0.314 0.215 0.745 0.116 0.935-0.214l1.84-3.203z"></path>
</symbol>
<symbol id="icon-Nav" viewBox="0 0 47 32">
<path stroke-linejoin="miter" stroke-linecap="round" stroke-miterlimit="4" stroke-width="3.2" d="M8.742 5.188h36.591"></path>
<path stroke-linejoin="miter" stroke-linecap="round" stroke-miterlimit="4" stroke-width="3.2" d="M8.742 24.582h36.591"></path>
<path stroke-linejoin="miter" stroke-linecap="round" stroke-miterlimit="4" stroke-width="3.2" d="M19.965 14.885h25.368"></path>
</symbol>
<symbol id="icon-instagram" viewBox="0 0 32 32">
<path fill="#fcf9f9" style="fill: var(--color1, #fcf9f9)" opacity="0.8" d="M28.717 10.756c-0.016-1.074-0.215-2.14-0.596-3.145-0.667-1.716-2.024-3.073-3.743-3.737-0.994-0.373-2.044-0.573-3.108-0.596-1.368-0.061-1.801-0.078-5.273-0.078s-3.917 0-5.274 0.078c-1.062 0.023-2.112 0.223-3.106 0.596-1.719 0.664-3.078 2.021-3.743 3.737-0.374 0.992-0.576 2.041-0.596 3.101-0.061 1.367-0.080 1.8-0.080 5.265s0 3.909 0.080 5.265c0.021 1.062 0.222 2.109 0.596 3.104 0.667 1.714 2.024 3.071 3.744 3.735 0.989 0.386 2.040 0.605 3.106 0.639 1.369 0.061 1.803 0.080 5.274 0.080s3.916 0 5.274-0.080c1.062-0.021 2.113-0.221 3.108-0.595 1.719-0.666 3.076-2.022 3.743-3.737 0.374-0.994 0.574-2.041 0.596-3.104 0.061-1.365 0.080-1.798 0.080-5.265-0.003-3.466-0.003-3.906-0.082-5.264zM15.99 22.531c-3.631 0-6.572-2.936-6.572-6.561s2.941-6.561 6.572-6.561c3.628 0 6.572 2.936 6.572 6.561s-2.944 6.561-6.572 6.561zM22.823 10.696c-0.849 0-1.532-0.684-1.532-1.53s0.684-1.53 1.532-1.53c0.846 0 1.531 0.684 1.531 1.53s-0.685 1.53-1.531 1.53z"></path>
<path fill="#fcf9f9" style="fill: var(--color1, #fcf9f9)" opacity="0.8" d="M15.992 19.976c2.211 0 4.004-1.793 4.004-4.004s-1.793-4.004-4.004-4.004c-2.211 0-4.004 1.793-4.004 4.004s1.793 4.004 4.004 4.004z"></path>
</symbol>
<symbol id="icon-youtube" viewBox="0 0 46 32">
<path fill="#fcf9f9" style="fill: var(--color1, #fcf9f9)" d="M35.929 0.444c-2.116-0.124-6.471-0.249-13.066-0.249h-0.871c-6.347 0-10.578 0.124-12.693 0.373-2.862 0.249-4.853 0.996-5.973 1.991-0.996 0.871-1.742 2.489-1.991 4.604-0.124 1.369-0.249 4.231-0.249 8.587v0.622c0 4.107 0.124 6.969 0.373 8.338 0.373 1.991 0.996 3.484 2.24 4.356 1.244 0.996 3.36 1.618 6.347 1.867 2.116 0.124 6.471 0.249 13.067 0.249h0.871c6.347 0 10.578-0.124 12.693-0.373 2.862-0.249 4.853-0.996 5.973-1.991 0.996-0.871 1.742-2.489 1.991-4.604 0.124-1.369 0.249-4.231 0.249-8.587v-0.622c0-4.107-0.124-6.969-0.373-8.338-0.373-1.991-0.996-3.484-2.24-4.356-1.244-0.996-3.36-1.618-6.347-1.867zM31.076 15.751l-13.689 8.213v-16.427l13.689 8.213z"></path>
</symbol>

<svg aria-hidden="true" style="position: absolute; width: 0; height: 0; overflow: hidden;" version="1.1" xmlns="http://www.w3.org/2000/svg" xmlns:xlink="http://www.w3.org/1999/xlink">
<defs>
<symbol id="icon-heart-icon" viewBox="0 0 32 32">
<path d="M20.093 8.607c-1.812 0-3.377 1.074-4.093 2.619-0.716-1.545-2.282-2.619-4.093-2.619-2.487 0-4.511 2.023-4.511 4.51 0 1.053 0.372 2.079 1.055 2.897 0.169 0.201 0.356 0.388 0.531 0.533l6.724 6.724c0.081 0.081 0.188 0.122 0.294 0.122s0.213-0.040 0.294-0.122l6.697-6.7c0.201-0.169 0.388-0.356 0.565-0.566 0.676-0.81 1.048-1.836 1.048-2.89-0.001-2.486-2.024-4.509-4.511-4.509zM22.911 15.48c-0.138 0.164-0.291 0.317-0.482 0.479l-6.429 6.429-6.456-6.454c-0.164-0.138-0.317-0.291-0.461-0.461-0.551-0.66-0.854-1.498-0.854-2.356 0-2.028 1.65-3.677 3.678-3.677s3.677 1.649 3.677 3.677c0 0.23 0.186 0.416 0.416 0.416s0.416-0.186 0.416-0.416c0-2.028 1.649-3.677 3.677-3.677s3.678 1.649 3.678 3.677c0.001 0.86-0.302 1.697-0.86 2.364z"></path>
</symbol>
</defs>
</svg>


</defs>
</svg>
